<svg xmlns="http://www.w3.org/2000/svg" viewBox="0 0 32 32"><g transform="translate(1021.268 -622.79)"><path fill="#2bbda8" stroke="#373449" stroke-linecap="round" stroke-linejoin="round" d="m -1005.1113,-391.07031 c -2.1278,-0.0553 -4.2164,1.02708 -5.3555,3 -1.3065,2.263 -0.9724,5.01984 0.6348,6.89843 l -0.9219,1.59571 0.3672,1.36719 -1.3672,0.36523 0.3672,1.36523 -1.3672,0.36719 0.3672,1.36524 -1.3516,0.33984 0.3516,1.39258 -1.3672,0.36523 -0.5,0.86719 0.9824,2.29883 2.4824,-0.29883 5.4219,-9.39063 c 0.7229,0.13459 1.4533,0.11664 2.1621,-0.0117 -1.5343,-1.08599 -2.541,-2.86507 -2.541,-4.88868 0,-2.94836 2.1286,-5.39368 4.9316,-5.89843 -0.1473,-0.10376 -0.2979,-0.20501 -0.457,-0.29688 -0.8968,-0.51778 -1.8726,-0.77761 -2.8398,-0.80273 z m 4.3652,3.99804 c -0.8284,0 -1.5,0.6715 -1.5,1.5 0,0.8284 0.6716,1.5 1.5,1.5 0.7212,0 1.321,-0.50918 1.46485,-1.1875 -0.0101,-0.31186 -0.0417,-0.62061 -0.0996,-0.92578 -0.23476,-0.52192 -0.75585,-0.88672 -1.36525,-0.88672 z" transform="translate(0 1020.362)"/><path fill="none" stroke="#373449" stroke-linecap="round" stroke-linejoin="round" d="m -1000.7464,630.2904 c -3.3137,0 -6,2.6863 -6,6 0,2.613 1.6688,4.8329 4,5.6562 l 0,1.8438 1,1 -1,1 1,1 -1,1 1,1 -1,0.9687 1,1.0313 -1,1 0,1 2,1.5 2,-1.5 0,-10.8438 c 2.33117,-0.8233 4,-3.0432 4,-5.6562 0,-3.3137 -2.68629,-6 -6,-6 z m 0,3 c 0.82843,0 1.5,0.6715 1.5,1.5 0,0.8284 -0.67157,1.5 -1.5,1.5 -0.8284,0 -1.5,-0.6716 -1.5,-1.5 0,-0.8285 0.6716,-1.5 1.5,-1.5 z"/><path fill="none" stroke="#373449" stroke-linecap="round" stroke-linejoin="round" d="m -1009.096,630.53168 a 5.9905581,5.9885197 0 0 1 2.4912,-6.20596 5.9905581,5.9885197 0 0 1 6.68915,-0.03 5.9905581,5.9885197 0 0 1 2.54668,6.1834 5.9905581,5.9885197 0 0 1 -4.77123,4.68687"/></g></svg>